<svg height="16" viewBox="0 0 16 16" width="16" xmlns="http://www.w3.org/2000/svg"><path d="m6 2c0-1.105.895-2 2-2s2 .895 2 2-.895 2-2 2-2-.895-2-2zm4.243 1.757c0-1.105.895-2 2-2s2 .895 2 2-.895 2-2 2-2-.895-2-2zm2.757 4.243c0-.552.448-1 1-1s1 .448 1 1-.448 1-1 1-1-.448-1-1zm-1.757 4.243c0-.552.448-1 1-1s1 .448 1 1-.448 1-1 1-1-.448-1-1zm-4.243 1.757c0-.552.448-1 1-1s1 .448 1 1c0 .552-.448 1-1 1s-1-.448-1-1zm-4.243-1.757c0-.552.448-1 1-1s1 .448 1 1c0 .552-.448 1-1 1s-1-.448-1-1zm-.5-8.486c0-.828.672-1.5 1.5-1.5s1.5.672 1.5 1.5c0 .828-.672 1.5-1.5 1.5s-1.5-.672-1.5-1.5zm-1.382 4.243c0-.621.504-1.125 1.125-1.125s1.125.504 1.125 1.125-.504 1.125-1.125 1.125-1.125-.504-1.125-1.125z"/></svg>